<?xml version="1.0" standalone="no"?>
<!DOCTYPE svg PUBLIC "-//W3C//DTD SVG 20010904//EN"
 "http://www.w3.org/TR/2001/REC-SVG-20010904/DTD/svg10.dtd">
<svg version="1.0" xmlns="http://www.w3.org/2000/svg"
 width="862.000000pt" height="177.000000pt" viewBox="0 0 862.000000 177.000000"
 preserveAspectRatio="xMidYMid meet">

<g transform="translate(0.000000,177.000000) scale(0.100000,-0.100000)"
fill="#000000" stroke="none">
<path d="M1600 1659 c-177 -20 -343 -89 -438 -182 -73 -72 -102 -133 -102
-217 0 -124 86 -237 235 -311 315 -155 790 -109 999 96 74 73 101 132 101 220
0 59 -5 79 -30 123 -77 140 -277 244 -520 272 -102 11 -138 11 -245 -1z m283
-55 c140 -36 267 -130 316 -234 22 -46 26 -69 26 -140 0 -75 -3 -90 -26 -125
-32 -49 -115 -127 -158 -149 -100 -52 -303 -71 -442 -42 -305 65 -459 335
-313 548 94 136 369 201 597 142z"/>
<path d="M5335 1660 c-245 -32 -440 -142 -512 -288 -36 -73 -39 -173 -7 -242
46 -101 185 -195 359 -242 69 -19 108 -22 280 -22 177 -1 211 2 290 22 50 12
120 37 155 55 l65 32 3 48 c2 26 0 47 -4 47 -3 0 -22 -14 -42 -31 -44 -39
-143 -84 -242 -111 -111 -31 -287 -30 -397 1 -200 56 -317 178 -317 330 0 127
68 238 182 299 88 47 177 65 317 65 195 -1 346 -43 422 -119 64 -64 75 -60 71
28 l-3 72 -35 8 c-198 43 -455 65 -585 48z"/>
<path d="M203 1653 c-73 -2 -133 -7 -133 -12 0 -5 27 -14 60 -20 93 -19 90 -6
90 -358 0 -301 0 -302 -23 -329 -18 -21 -35 -28 -75 -32 -35 -3 -52 -9 -52
-18 0 -12 43 -14 236 -14 184 0 235 3 232 13 -3 6 -27 15 -54 18 -27 3 -57 9
-66 13 -28 13 -38 64 -38 197 l0 129 139 0 c162 0 262 18 336 59 50 28 91 75
101 118 19 76 -46 163 -150 202 -106 39 -181 43 -603 34z m429 -49 c193 -55
224 -254 49 -313 -44 -14 -209 -14 -267 0 l-44 11 0 159 0 159 102 0 c64 0
123 -6 160 -16z"/>
<path d="M2778 1653 c-133 -2 -228 -7 -228 -13 0 -5 17 -12 38 -15 20 -4 49
-11 64 -17 49 -18 53 -47 53 -365 0 -287 0 -293 -22 -314 -14 -15 -38 -23 -72
-27 -34 -3 -51 -9 -51 -18 0 -12 41 -14 225 -14 184 0 225 2 225 14 0 9 -18
15 -57 18 -87 7 -93 19 -93 191 l0 140 74 -6 c41 -3 85 -11 98 -18 12 -6 88
-76 168 -154 178 -174 201 -185 383 -193 75 -3 117 -1 117 6 0 12 -34 22 -75
22 -66 0 -126 44 -285 204 -85 86 -149 156 -143 156 30 0 128 45 159 73 94 82
85 180 -24 264 -84 64 -154 72 -554 66z m353 -57 c65 -24 124 -77 144 -130 16
-43 16 -47 -1 -83 -37 -75 -132 -113 -283 -113 -154 0 -141 -15 -141 174 0 90
3 166 8 170 13 14 224 -1 273 -18z"/>
<path d="M4044 1645 c-151 -33 -249 -125 -229 -216 9 -40 58 -95 106 -120 21
-10 119 -43 218 -73 100 -30 201 -64 226 -76 127 -62 128 -174 1 -230 -107
-48 -265 -47 -379 2 -47 21 -117 89 -117 115 0 7 -11 13 -25 13 -25 0 -25 -1
-25 -89 l0 -89 33 -6 c163 -29 366 -29 495 0 216 48 310 214 185 325 -53 46
-117 72 -288 119 -82 23 -174 52 -203 67 -126 60 -115 169 20 218 68 25 200
25 283 1 68 -20 131 -76 141 -124 4 -21 11 -29 23 -27 9 2 22 4 29 4 10 1 12
23 10 89 l-3 87 -90 12 c-120 15 -335 15 -411 -2z"/>
<path d="M6318 1653 c-185 -3 -218 -6 -218 -18 0 -11 13 -15 50 -15 41 0 56
-5 75 -25 l25 -24 0 -306 0 -306 -23 -23 c-16 -16 -41 -26 -75 -31 -35 -4 -52
-12 -52 -21 0 -12 39 -14 230 -14 198 0 230 2 230 15 0 11 -11 15 -40 15 -51
0 -96 22 -104 52 -3 13 -6 85 -6 161 l0 137 370 0 370 0 0 -139 c0 -190 -1
-192 -102 -206 -32 -4 -48 -11 -48 -21 0 -12 37 -14 230 -14 195 0 230 2 230
15 0 10 -16 16 -51 21 -27 4 -60 15 -72 24 -22 18 -22 24 -25 307 -2 158 0
303 3 321 7 40 36 59 94 64 25 2 46 9 49 16 3 9 -44 12 -201 12 -112 0 -219 3
-236 6 -26 6 -31 4 -31 -14 0 -17 8 -20 60 -24 92 -7 94 -11 98 -183 l3 -145
-371 0 -371 0 3 145 c4 170 7 176 92 183 46 4 56 8 56 23 0 11 -6 18 -12 17
-7 -2 -111 -4 -230 -5z"/>
<path d="M7576 1653 c-19 -19 -2 -31 50 -35 93 -8 89 8 92 -352 3 -367 6 -356
-91 -364 -39 -3 -57 -9 -57 -18 0 -12 78 -14 469 -14 l469 0 11 68 c7 37 14
82 17 100 6 29 4 32 -18 32 -19 0 -28 -10 -45 -49 -37 -88 -116 -111 -377
-111 -229 0 -216 -12 -216 195 l0 155 150 0 c168 0 213 -11 230 -55 6 -15 17
-25 30 -25 19 0 20 6 20 89 0 49 3 96 6 105 5 12 -1 16 -24 16 -23 0 -31 -5
-36 -25 -12 -49 -43 -57 -221 -63 l-165 -5 0 163 0 163 168 -7 c247 -10 324
-33 348 -107 8 -24 18 -34 33 -34 26 0 25 -3 17 94 -5 57 -11 81 -22 85 -21 8
-830 7 -838 -1z"/>
<path d="M60 630 c0 -20 7 -20 4245 -20 4238 0 4245 0 4245 20 0 20 -7 20
-4245 20 -4238 0 -4245 0 -4245 -20z"/>
<path d="M3157 386 c-57 -16 -94 -41 -124 -86 -62 -90 8 -174 168 -202 100
-17 259 18 259 57 0 17 -16 20 -25 5 -28 -46 -210 -61 -281 -23 -51 27 -74 61
-74 110 0 85 63 134 175 136 82 2 129 -9 165 -39 l30 -26 0 30 c0 29 -2 30
-63 41 -82 14 -170 13 -230 -3z"/>
<path d="M3600 389 c0 -4 10 -9 23 -11 21 -3 22 -7 25 -130 l3 -126 -28 -10
c-22 -8 -10 -10 62 -10 50 0 79 3 65 5 -34 7 -40 19 -40 81 l0 52 140 0 141 0
-3 -62 c-3 -57 -5 -63 -28 -69 -14 -4 15 -7 65 -7 50 0 81 2 70 5 -37 9 -45
32 -45 132 0 118 5 135 38 148 22 9 10 11 -66 12 -60 1 -91 -3 -87 -9 3 -5 15
-10 26 -10 23 0 28 -10 32 -72 l3 -48 -143 0 -143 0 0 55 c0 49 3 57 23 64 12
5 25 7 30 4 4 -2 7 0 7 5 0 4 -38 8 -85 8 -47 0 -85 -3 -85 -7z"/>
<path d="M4280 381 l35 -6 0 -130 0 -130 -35 -6 c-19 -4 17 -7 80 -7 114 0
120 1 67 12 l-28 7 3 127 3 127 35 6 c19 4 -17 6 -80 6 -63 0 -99 -2 -80 -6z"/>
<path d="M4646 383 c39 -5 41 -11 43 -145 2 -114 -1 -123 -54 -131 -16 -2 65
-4 180 -3 l210 1 3 33 c4 36 -9 42 -29 11 -23 -34 -154 -52 -214 -29 l-26 10
3 122 3 123 40 6 c22 3 -11 6 -75 6 -63 0 -101 -2 -84 -4z"/>
<path d="M5200 381 l35 -6 0 -130 0 -130 -35 -6 c-19 -4 61 -7 178 -8 163 -1
212 2 212 12 0 6 3 22 6 35 8 30 -11 29 -39 -3 -19 -22 -33 -26 -102 -31 -48
-4 -91 -2 -107 5 -26 10 -28 15 -28 66 l0 55 84 0 c62 0 87 -4 96 -15 21 -26
30 -17 30 30 0 49 -8 56 -28 25 -11 -17 -23 -20 -98 -20 l-85 0 3 58 3 57 93
0 c90 0 95 -1 116 -27 29 -37 36 -35 36 7 l0 35 -202 -1 c-112 -1 -187 -4
-168 -8z"/>
</g>
</svg>
